<?xml version="1.0" encoding="UTF-8"?>
<svg id="Calque_1" xmlns="http://www.w3.org/2000/svg" version="1.1" viewBox="0 0 160 160">
  <!-- Generator: Adobe Illustrator 29.3.1, SVG Export Plug-In . SVG Version: 2.1.0 Build 151)  -->
  <path d="M38,79.5h0c4.7-3,4-7.2.8-9.5-3.1-2.4-10.5-1.6-14.9-1.5h0v23c2.8.4,14,1,16.6-1.5,1.9-1.8,4.2-7-2.6-10.3h0v-.2ZM30.5,70.1c2.2,0,4.2,1.5,4.2,4s-.8,4.1-3.3,4.2h-1.6v-8h.8c0,0-.1-.2-.1-.2ZM31.8,89.7c-.1,0-2.2,0-2.2,0v-8.6h1.5c2.6,0,3.9,1.6,4.1,4,0,2.6-.7,4.6-3.5,4.7h.1Z"/>
  <rect x="42.8" y="68.6" width="16.2" height="3.1"/>
  <rect x="42.8" y="88.2" width="16.2" height="3.1"/>
  <rect x="42.8" y="79" width="14.9" height="1.7"/>
  <path d="M79.4,82.1c-.3-1.7-2.3-2.6-3.2-2.7v-.2c3.7-1.7,3.8-5.7,2.4-8-1.9-2.9-4.6-2.7-6.7-2.7h-10.3v22.8h6.5v-10.5h2.1c1,0,1.9.5,2.4,1.3.2.3.3.7.3,1.2v8.1h6.5c0-.9,0-8.3,0-9.2h0ZM70.8,77.9c-.6.7-1.6,1-2.6,1h-.2v-8.2c.6,0,1,0,1.5,0,.8,0,2.8.8,2.8,3.7s-.8,2.7-1.5,3.5h0Z"/>
  <path d="M94.6,79c-2.6-1.4-8.2-2.6-8.7-5.6,0-1.2,1.3-3.1,4-3.1s5,1.5,5,3.8,0,0,0,0h2.1s.2,0,0,0c-.6-3.9-4-5.1-5.8-5.6-4.4-1.2-11.3,1-11.2,6.5,0,2.8.8,5.1,6.6,7.8,1.3.6,6.2,1.7,6,4.9,0,1.7-2.8,2.4-5.5,2.1-1.7-.2-4-1.9-4-3.9,0,0,0,0,0,0h-2c0,0-.2,0,0,.2,1,3.7,3.2,5.6,7.5,5.6,8.2,0,9.3-4.3,9.5-5.4.5-2.8-.8-5.6-3.5-7h0v-.2Z"/>
  <polygon points="106.3 68.5 99.1 68.5 104.5 82.4 99.1 82.4 99.1 84 105.2 84 108.2 91.3 115.4 91.3 106.3 68.5"/>
  <g>
    <polygon points="132.4 68.6 126.9 81.8 123 68.6 116.1 68.6 123 91.3 125.6 91.3 132.4 75.1 132.4 91.3 138.9 91.3 138.9 68.6 132.4 68.6"/>
    <polygon points="117.8 91.3 117.8 74 116.1 68.6 116.1 91.3 117.8 91.3"/>
  </g>
</svg>