<?xml version="1.0" encoding="UTF-8"?>
<svg id="Calque_1" xmlns="http://www.w3.org/2000/svg" version="1.1" viewBox="0 0 160 160">
  <!-- Generator: Adobe Illustrator 29.3.1, SVG Export Plug-In . SVG Version: 2.1.0 Build 151)  -->
  <rect x="75.6" y="63.9" width="26.5" height="4.1"/>
  <rect x="77.4" y="90.3" width="24.7" height="4.1"/>
  <rect x="75.6" y="77.9" width="24" height="2.7"/>
  <path d="M79.2,78.6v-.2c6.4-3.9,5.3-9.7,1.1-12.7-4.2-3.2-14.2-2.2-20.1-2.1h0v31c3,.6,18.9,1.3,22.4-2.1,2.5-2.4,5.6-9.5-3.5-13.9h0ZM69.1,65.9c3,0,5.7,2.1,5.7,5.3s-1.1,5.5-4.5,5.6h-2.2v-10.8l1-.2h0ZM70.9,92.4c-.2,0-2.9,0-2.9-.2v-11.6h2.1c3.6,0,5.2,2.2,5.5,5.4.2,3.5-.9,6.3-4.7,6.4Z"/>
</svg>