<?xml version="1.0" encoding="UTF-8"?>
<svg id="Calque_1" xmlns="http://www.w3.org/2000/svg" version="1.1" viewBox="0 0 160 160">
  <!-- Generator: Adobe Illustrator 29.3.1, SVG Export Plug-In . SVG Version: 2.1.0 Build 151)  -->
  <defs>
    <style>
      .st0 {
        fill: #fff;
      }

      .st1 {
        fill: #bdbf13;
      }
    </style>
  </defs>
  <g>
    <path class="st0" d="M31.4,73.6v-.2c5.2-3.2,4.4-7.9.9-10.4-3.4-2.6-11.6-1.8-16.4-1.7h0v25.4c4.7,0,15.5,1.1,18.3-1.7,2.1-2,4.6-7.7-2.8-11.3h0ZM23.2,63.2c2.5,0,4.7,1.7,4.7,4.4s-.9,4.5-3.7,4.6h-1.8v-8.8l.8-.2h0ZM24.6,84.9c-.2,0-2.4,0-2.4-.2v-9.5h1.7c2.9,0,4.3,1.8,4.5,4.4.2,2.8-.8,5.1-3.8,5.2h0Z"/>
    <rect class="st0" x="39.2" y="61.6" width="17.9" height="3.4"/>
    <rect class="st0" x="39.2" y="83.2" width="17.9" height="3.4"/>
    <rect class="st0" x="39.2" y="73.1" width="16.4" height="1.8"/>
    <path class="st0" d="M79.5,76.4c-.3-1.8-2.5-2.8-3.5-3v-.2c4.1-1.8,4.2-6.3,2.6-8.8-2.1-3.2-5.1-3-7.4-3h-11.4v25.2h7.2v-11.6h2.3c1.1,0,2.1.5,2.7,1.5.2.4.4.8.4,1.3v9h7.2c0-1,0-9.1-.2-10.2h0v-.2ZM70.1,71.8c-.7.8-1.8,1.1-2.8,1.1h-.2v-9c.6-.2,1.1-.2,1.6,0,.9,0,3.1.9,3.1,4.1s-.8,3-1.7,3.9h0Z"/>
    <path class="st0" d="M96.3,73c-2.8-1.5-9-2.9-9.6-6.2-.2-1.3,1.5-3.4,4.4-3.4s5.5,1.6,5.5,4.2,0,.2.2.2h2.3s.2,0,.2-.2c-.7-4.3-4.4-5.7-6.4-6.1-4.9-1.3-12.5,1.1-12.3,7.1,0,3.1.8,5.7,7.3,8.6,1.5.7,6.8,1.8,6.6,5.4,0,1.9-3.1,2.7-6.1,2.3-1.8-.2-4.4-2.1-4.4-4.3,0,0,0-.2-.2-.2h-2.2c-.2,0-.2.2-.2.2,1.1,4.1,3.5,6.1,8.3,6.1,9,0,10.3-4.7,10.5-6,.5-3.1-.8-6.1-3.9-7.7h0Z"/>
    <polygon class="st0" points="109.3 61.4 101.2 61.4 107.3 76.7 101.2 76.7 101.2 78.5 108.1 78.5 111.3 86.6 119.2 86.6 109.3 61.4"/>
    <g>
      <polygon class="st0" points="138 61.5 132 76.1 127.7 61.5 120.1 61.5 127.7 86.6 130.6 86.6 138 68.7 138 86.6 145.2 86.6 145.2 61.5 138 61.5"/>
      <polygon class="st0" points="121.9 86.6 121.9 67.6 120.1 61.5 120.1 86.6 121.9 86.6"/>
    </g>
  </g>
  <rect class="st1" x="16" y="92.3" width="129.2" height="3.1"/>
</svg>